<svg width="24" height="24" viewBox="0 0 24 24" fill="none" xmlns="http://www.w3.org/2000/svg">
<path d="M9 12.1403L11.0067 14.1449C11.9719 12.4572 13.3076 11.0106 14.9132 9.91427L15 9.85499M21.25 11.9999C21.25 10.7095 20.4558 9.59043 19.2736 8.98579C19.6887 7.7314 19.4541 6.36872 18.5427 5.45726C17.6312 4.54579 16.2685 4.31116 15.0141 4.72628C14.4185 3.54409 13.2905 2.74994 12 2.74994C10.7095 2.74994 9.59046 3.54409 8.99485 4.72628C7.73143 4.31116 6.36875 4.54579 5.45729 5.45726C4.54582 6.36872 4.32021 7.7314 4.73534 8.98579C3.55314 9.59043 2.74997 10.7095 2.74997 11.9999C2.74997 13.2904 3.55314 14.4095 4.73534 15.0141C4.32021 16.2685 4.54582 17.6312 5.45729 18.5426C6.36875 19.4541 7.73143 19.6797 8.98582 19.2736C9.59046 20.4558 10.7095 21.2499 12 21.2499C13.2905 21.2499 14.4185 20.4558 15.0141 19.2736C16.2685 19.6797 17.6312 19.4541 18.5427 18.5426C19.4541 17.6312 19.6887 16.2685 19.2736 15.0141C20.4558 14.4095 21.25 13.2904 21.25 11.9999Z" stroke="#303A47" stroke-width="2" stroke-linecap="round" stroke-linejoin="round"/>
</svg>
